<?xml version="1.0" standalone="no"?>
<!DOCTYPE svg PUBLIC "-//W3C//DTD SVG 20010904//EN"
 "http://www.w3.org/TR/2001/REC-SVG-20010904/DTD/svg10.dtd">
<svg version="1.0" xmlns="http://www.w3.org/2000/svg"
 width="1024.000000pt" height="768.000000pt" viewBox="0 0 1024.000000 768.000000"
 preserveAspectRatio="xMidYMid meet">
<metadata>
Created by potrace 1.16, written by Peter Selinger 2001-2019
</metadata>
<g transform="translate(0.000000,768.000000) scale(0.071111,-0.082403)"
fill="#000000" stroke="none">
<path d="M6937 8103 c651 -2 1715 -2 2365 0 651 1 119 2 -1182 2 -1301 0
-1833 -1 -1183 -2z"/>
<path d="M5160 8038 c-360 -36 -660 -176 -847 -396 -178 -211 -264 -445 -292
-802 -7 -80 -11 -1339 -11 -3483 l0 -3357 40 0 40 0 0 3398 c-1 2392 3 3427
10 3497 37 332 131 553 319 748 195 202 441 306 801 337 165 14 5354 14 5520
0 319 -28 522 -100 716 -256 206 -165 337 -400 388 -694 36 -207 38 -472 32
-3792 l-7 -3238 41 0 40 0 0 3377 c0 2180 -4 3419 -10 3493 -33 367 -155 652
-365 848 -201 187 -447 287 -791 321 -135 14 -5491 13 -5624 -1z"/>
<path d="M2690 7430 c0 -11 6 -20 13 -20 9 0 9 -2 0 -8 -8 -5 -14 -78 -20
-237 l-8 -230 -54 -3 c-35 -2 -57 1 -62 9 -4 7 -8 96 -9 197 0 102 -3 189 -6
194 -11 17 -35 7 -44 -18 -6 -15 -10 -207 -10 -472 -1 -377 -3 -450 -15 -466
-22 -30 -22 -1527 0 -1546 12 -10 15 -82 17 -476 3 -400 5 -466 18 -474 8 -5
20 -8 25 -7 6 2 12 84 16 203 3 109 7 200 7 202 1 1 28 2 61 2 l58 0 6 -262
c4 -145 11 -283 15 -308 5 -25 10 -39 11 -32 0 6 8 12 16 12 8 0 17 12 21 28
3 15 8 36 12 47 3 11 6 83 7 160 8 467 8 458 -11 504 -17 42 -16 45 5 107 19
52 22 79 19 156 -3 83 -6 98 -33 140 -16 26 -33 44 -38 41 -14 -9 -1 219 17
277 14 49 16 105 12 480 -3 365 -6 430 -20 462 -17 39 -23 174 -8 164 5 -3 16
10 25 29 9 19 21 35 26 35 5 0 17 20 26 44 26 68 16 394 -19 621 -15 94 -29
230 -32 304 -4 94 -9 138 -19 147 -19 19 -25 18 -25 -6z m-52 -899 l42 -1 0
-274 c0 -150 -3 -288 -6 -305 -6 -30 -8 -31 -63 -31 -31 0 -62 -5 -69 -12 -9
-9 -12 39 -13 218 -3 408 -1 418 46 409 11 -2 39 -4 63 -4z m40 -1548 l2 -301
-65 -4 c-36 -1 -70 -1 -75 0 -6 2 -10 119 -10 310 l0 307 72 -5 73 -5 3 -302z"/>
<path d="M2982 7327 c-30 -17 -47 -44 -60 -97 -14 -58 -14 -241 -13 -4057 l1
-3173 385 0 385 0 2 3212 c2 1767 1 3398 -2 3623 -4 367 -7 413 -23 442 -33
61 -45 63 -364 63 -212 -1 -294 -4 -311 -13z"/>
<path d="M5335 7325 c-155 -34 -285 -106 -388 -215 -135 -142 -196 -284 -205
-477 -3 -83 0 -131 13 -190 58 -263 251 -473 510 -553 96 -30 264 -37 365 -16
201 43 402 193 498 374 86 162 109 380 57 557 -62 215 -224 395 -432 480 -128
52 -293 68 -418 40z"/>
<path d="M4346 6861 c-4 -5 -3 -16 0 -24 3 -9 -1 -31 -10 -49 -32 -67 -35
-184 -33 -1228 2 -974 4 -1051 21 -1133 17 -80 34 -112 53 -94 3 3 0 79 -6
169 -12 177 -16 2238 -5 2321 4 31 3 47 -4 47 -6 0 -13 -4 -16 -9z"/>
<path d="M8476 6230 c0 -615 10 -1070 24 -1070 3 0 7 314 9 698 2 665 0 724
-28 937 -3 28 -6 -227 -5 -565z"/>
<path d="M6318 6780 c13 -105 6 -311 -12 -379 -83 -305 -327 -540 -642 -618
-101 -24 -294 -22 -399 6 -305 81 -533 309 -617 616 -16 62 -21 108 -22 205 0
69 3 143 7 165 5 29 4 34 -3 18 -33 -80 -36 -295 -4 -438 8 -38 16 -75 18 -82
1 -7 5 -16 9 -19 4 -4 7 -16 7 -26 0 -11 10 -43 22 -71 73 -173 243 -340 435
-429 46 -21 89 -38 97 -38 7 0 26 -6 42 -14 71 -35 294 -38 416 -7 91 23 233
93 308 151 71 55 241 230 224 230 -4 0 2 10 13 23 26 29 75 142 104 242 21 72
24 98 22 245 -1 110 -6 183 -16 220 l-15 55 6 -55z"/>
<path d="M7604 6799 c-31 -35 -136 -87 -196 -98 -94 -17 -192 5 -276 62 -24
16 -45 27 -48 25 -9 -9 83 -85 131 -108 28 -13 74 -25 104 -28 62 -5 154 13
171 34 7 7 19 14 26 14 13 0 124 103 124 115 0 12 -18 4 -36 -16z"/>
<path d="M7218 6340 c-72 -12 -144 -38 -233 -83 -62 -31 -101 -61 -172 -132
-80 -80 -97 -105 -142 -196 -64 -134 -86 -234 -78 -374 17 -347 272 -639 615
-706 101 -19 270 -7 366 26 141 49 223 102 325 211 78 84 148 210 176 319 50
192 19 404 -86 583 -44 73 -178 207 -251 251 -158 93 -349 130 -520 101z"/>
<path d="M11980 3160 c0 -1740 2 -3161 5 -3159 2 3 5 200 5 438 l1 432 24 11
25 11 0 539 0 538 -24 10 -25 9 0 226 0 226 24 11 25 11 0 539 0 538 -25 10
-24 9 2 328 2 327 25 6 25 6 3 267 2 267 -30 6 -30 6 0 771 c0 424 -2 773 -5
775 -3 3 -5 -1418 -5 -3158z"/>
<path d="M3970 4705 c0 -1532 -1 -1575 -19 -1575 -14 0 -20 -10 -25 -37 -10
-64 -7 -1739 4 -1767 5 -14 17 -26 26 -26 11 0 15 -8 14 -28 -3 -42 -1 -52 11
-52 8 0 10 717 7 2530 -1 1391 -6 2530 -10 2530 -5 0 -8 -709 -8 -1575z"/>
<path d="M6540 5968 c-54 -118 -79 -216 -90 -364 -12 -160 0 -263 46 -392 82
-229 223 -386 452 -501 137 -69 276 -97 439 -87 256 14 442 96 617 272 102
103 168 224 210 384 35 136 40 217 21 361 -16 126 -42 239 -54 239 -4 0 1 -30
10 -67 28 -106 25 -294 -5 -411 -83 -318 -314 -549 -634 -633 -111 -29 -307
-29 -417 0 -251 67 -454 230 -565 456 -73 148 -93 246 -87 415 5 145 24 230
78 348 15 34 25 62 23 62 -3 0 -23 -37 -44 -82z"/>
<path d="M5330 5315 c-221 -47 -407 -187 -508 -383 -65 -127 -77 -177 -77
-342 0 -125 3 -154 23 -214 83 -246 248 -414 487 -493 70 -23 96 -27 215 -27
154 -1 219 13 338 72 247 122 403 373 405 652 3 339 -201 617 -528 720 -89 28
-261 36 -355 15z"/>
<path d="M4667 4908 c-45 -115 -60 -195 -62 -333 -4 -190 21 -312 92 -465 80
-170 243 -338 399 -412 168 -79 424 -100 599 -49 153 45 357 174 455 287 101
117 169 263 201 428 26 136 24 177 -15 401 -7 36 -46 150 -57 165 -9 12 -10
11 -4 -5 38 -107 49 -176 49 -315 1 -123 -3 -157 -22 -225 -47 -161 -129 -294
-250 -405 -159 -147 -351 -221 -572 -221 -388 0 -703 235 -822 611 -20 67 -23
94 -23 245 0 166 1 172 32 260 37 103 37 126 0 33z"/>
<path d="M7932 4537 c-6 -7 -14 -35 -17 -62 -9 -63 14 -98 64 -98 47 0 75 32
73 83 -3 61 -26 90 -72 90 -21 0 -42 -6 -48 -13z"/>
<path d="M7229 4471 c-142 -57 -227 -176 -230 -323 -4 -144 68 -259 201 -322
57 -27 75 -31 150 -31 106 1 160 24 241 105 77 77 102 144 97 260 -5 99 -25
147 -95 221 -66 71 -136 102 -237 106 -62 2 -92 -1 -127 -16z"/>
</g>
</svg>
